<svg width="201" height="64" viewBox="0 0 201 64" fill="none" xmlns="http://www.w3.org/2000/svg">
<path d="M47 39.9545H29.375V16.5H17.625V39.9545H0L23.5 63.4091L47 39.9545Z" fill="black"/>
<path d="M46.4688 25.1387C46.375 23.7207 45.9004 22.6309 45.0449 21.8691C44.2012 21.0957 43.041 20.709 41.5645 20.709C40.2285 20.709 39.1152 21.1133 38.2246 21.9219C37.334 22.7188 36.8184 23.791 36.6777 25.1387H46.4688ZM49.4219 27.3711H36.6777V27.6172C36.6777 29.3398 37.1699 30.7344 38.1543 31.8008C39.1387 32.8555 40.4219 33.3828 42.0039 33.3828C43.082 33.3828 44.0547 33.0957 44.9219 32.5215C45.7891 31.9355 46.5566 31.0566 47.2246 29.8848L49.3164 31.291C48.5078 32.7441 47.4766 33.8398 46.2227 34.5781C44.9688 35.3164 43.5156 35.6855 41.8633 35.6855C39.4141 35.6855 37.4336 34.877 35.9219 33.2598C34.4102 31.6426 33.6543 29.5215 33.6543 26.8965C33.6543 24.377 34.4043 22.3145 35.9043 20.709C37.4043 19.1035 39.332 18.3008 41.6875 18.3008C44.0664 18.3008 45.9473 19.0625 47.3301 20.5859C48.7246 22.1094 49.4219 24.1895 49.4219 26.8262V27.3711ZM53.5879 35V18.916H56.2773V21.3945C56.9688 20.3633 57.8008 19.5957 58.7734 19.0918C59.7461 18.5879 60.8711 18.3359 62.1484 18.3359C64.0469 18.3359 65.5293 18.8398 66.5957 19.8477C67.6621 20.8555 68.1953 22.2559 68.1953 24.0488V35H65.3828V25.5254C65.3828 23.8965 65.0371 22.6895 64.3457 21.9043C63.666 21.1074 62.6113 20.709 61.1816 20.709C60.3613 20.709 59.6113 20.8613 58.9316 21.166C58.2637 21.459 57.707 21.8809 57.2617 22.4316C56.9219 22.8535 56.6758 23.334 56.5234 23.873C56.3828 24.4121 56.3125 25.3496 56.3125 26.6855V35H53.5879ZM74.084 21.1836H71.1309V18.916H74.084V12.4297H76.8965V18.916H79.8496V21.1836H76.8965V35H74.084V21.1836ZM94.3867 25.1387C94.293 23.7207 93.8184 22.6309 92.9629 21.8691C92.1191 21.0957 90.959 20.709 89.4824 20.709C88.1465 20.709 87.0332 21.1133 86.1426 21.9219C85.252 22.7188 84.7363 23.791 84.5957 25.1387H94.3867ZM97.3398 27.3711H84.5957V27.6172C84.5957 29.3398 85.0879 30.7344 86.0723 31.8008C87.0566 32.8555 88.3398 33.3828 89.9219 33.3828C91 33.3828 91.9727 33.0957 92.8398 32.5215C93.707 31.9355 94.4746 31.0566 95.1426 29.8848L97.2344 31.291C96.4258 32.7441 95.3945 33.8398 94.1406 34.5781C92.8867 35.3164 91.4336 35.6855 89.7812 35.6855C87.332 35.6855 85.3516 34.877 83.8398 33.2598C82.3281 31.6426 81.5723 29.5215 81.5723 26.8965C81.5723 24.377 82.3223 22.3145 83.8223 20.709C85.3223 19.1035 87.25 18.3008 89.6055 18.3008C91.9844 18.3008 93.8652 19.0625 95.248 20.5859C96.6426 22.1094 97.3398 24.1895 97.3398 26.8262V27.3711ZM101.541 35V18.916H103.984V22.2559C104.723 20.8613 105.508 19.8652 106.34 19.2676C107.172 18.6699 108.186 18.3711 109.381 18.3711C109.709 18.3711 110.025 18.4004 110.33 18.459C110.635 18.5059 110.939 18.582 111.244 18.6875L110.33 21.166C110.014 21.0605 109.715 20.9844 109.434 20.9375C109.152 20.8789 108.883 20.8496 108.625 20.8496C107.172 20.8496 106.082 21.377 105.355 22.4316C104.629 23.4746 104.266 25.0508 104.266 27.1602V35H101.541ZM124.779 35V7.75391H127.469V21.3945C128.16 20.3633 128.992 19.5957 129.965 19.0918C130.938 18.5879 132.062 18.3359 133.34 18.3359C135.238 18.3359 136.721 18.8398 137.787 19.8477C138.854 20.8555 139.387 22.2559 139.387 24.0488V35H136.574V25.5254C136.574 23.8965 136.229 22.6895 135.537 21.9043C134.857 21.1074 133.803 20.709 132.373 20.709C131.553 20.709 130.803 20.8613 130.123 21.166C129.455 21.459 128.898 21.8809 128.453 22.4316C128.113 22.8535 127.867 23.334 127.715 23.873C127.574 24.4121 127.504 25.3496 127.504 26.6855V35H124.779ZM156.262 25.1387C156.168 23.7207 155.693 22.6309 154.838 21.8691C153.994 21.0957 152.834 20.709 151.357 20.709C150.021 20.709 148.908 21.1133 148.018 21.9219C147.127 22.7188 146.611 23.791 146.471 25.1387H156.262ZM159.215 27.3711H146.471V27.6172C146.471 29.3398 146.963 30.7344 147.947 31.8008C148.932 32.8555 150.215 33.3828 151.797 33.3828C152.875 33.3828 153.848 33.0957 154.715 32.5215C155.582 31.9355 156.35 31.0566 157.018 29.8848L159.109 31.291C158.301 32.7441 157.27 33.8398 156.016 34.5781C154.762 35.3164 153.309 35.6855 151.656 35.6855C149.207 35.6855 147.227 34.877 145.715 33.2598C144.203 31.6426 143.447 29.5215 143.447 26.8965C143.447 24.377 144.197 22.3145 145.697 20.709C147.197 19.1035 149.125 18.3008 151.48 18.3008C153.859 18.3008 155.74 19.0625 157.123 20.5859C158.518 22.1094 159.215 24.1895 159.215 26.8262V27.3711ZM163.416 35V18.916H165.859V22.2559C166.598 20.8613 167.383 19.8652 168.215 19.2676C169.047 18.6699 170.061 18.3711 171.256 18.3711C171.584 18.3711 171.9 18.4004 172.205 18.459C172.51 18.5059 172.814 18.582 173.119 18.6875L172.205 21.166C171.889 21.0605 171.59 20.9844 171.309 20.9375C171.027 20.8789 170.758 20.8496 170.5 20.8496C169.047 20.8496 167.957 21.377 167.23 22.4316C166.504 23.4746 166.141 25.0508 166.141 27.1602V35H163.416ZM187.445 25.1387C187.352 23.7207 186.877 22.6309 186.021 21.8691C185.178 21.0957 184.018 20.709 182.541 20.709C181.205 20.709 180.092 21.1133 179.201 21.9219C178.311 22.7188 177.795 23.791 177.654 25.1387H187.445ZM190.398 27.3711H177.654V27.6172C177.654 29.3398 178.146 30.7344 179.131 31.8008C180.115 32.8555 181.398 33.3828 182.98 33.3828C184.059 33.3828 185.031 33.0957 185.898 32.5215C186.766 31.9355 187.533 31.0566 188.201 29.8848L190.293 31.291C189.484 32.7441 188.453 33.8398 187.199 34.5781C185.945 35.3164 184.492 35.6855 182.84 35.6855C180.391 35.6855 178.41 34.877 176.898 33.2598C175.387 31.6426 174.631 29.5215 174.631 26.8965C174.631 24.377 175.381 22.3145 176.881 20.709C178.381 19.1035 180.309 18.3008 182.664 18.3008C185.043 18.3008 186.924 19.0625 188.307 20.5859C189.701 22.1094 190.398 24.1895 190.398 26.8262V27.3711Z" fill="#111010"/>
</svg>
